<svg width="20" height="12" viewBox="0 5.37 19.58 11.17" fill="none" xmlns="http://www.w3.org/2000/svg">
<path fill-rule="evenodd" clip-rule="evenodd" d="M11.0127 5.37342H6.11815C5.69967 5.37342 5.28981 5.41557 4.89452 5.49745C4.46864 5.58564 4.05996 5.71695 3.67089 5.88944C3.23401 6.08301 2.82415 6.32721 2.44726 6.61381C1.98362 6.96607 1.57112 7.38422 1.22363 7.85421C0.939709 8.23626 0.700002 8.65175 0.509049 9.09461C0.338888 9.4878 0.209355 9.90329 0.122363 10.335C0.0415843 10.7357 0 11.15 0 11.5754V14.0562H2.44726V16.537H6.11815L8.56541 14.0574V16.537H13.4599C13.8784 16.537 14.2883 16.4948 14.6836 16.413C15.1094 16.3248 15.5193 16.1935 15.9072 16.0198C16.3441 15.8274 16.7551 15.5832 17.1308 15.2966C17.3239 15.1498 17.5082 14.9916 17.6826 14.823C17.9269 14.587 18.1518 14.3304 18.3544 14.0562C18.6372 13.6741 18.8781 13.2587 19.0678 12.8158C19.2392 12.4226 19.3687 12.0071 19.4557 11.5754C19.5365 11.1747 19.5781 10.7592 19.5781 10.335V7.85421H17.1308V5.37342H13.4599L11.0127 7.85421V5.37342ZM17.1308 7.85421V14.0562H8.56541L14.6836 7.85421H17.1308ZM11.0127 7.85421L4.89452 14.0562H2.44726V7.85421H11.0127Z" fill="white"/>
</svg>
